<mxfile host="65bd71144e">
    <diagram name="Page-1" id="97916047-d0de-89f5-080d-49f4d83e522f">
        <mxGraphModel dx="1082" dy="790" grid="1" gridSize="10" guides="1" tooltips="1" connect="1" arrows="0" fold="1" page="1" pageScale="1.5" pageWidth="1169" pageHeight="827" background="#ffffff" math="0" shadow="0">
            <root>
                <mxCell id="0"/>
                <mxCell id="1" parent="0"/>
                <mxCell id="UruzkeS9mUNZaN0ZP_7J-65" style="edgeStyle=orthogonalEdgeStyle;curved=0;rounded=0;sketch=0;orthogonalLoop=1;jettySize=auto;html=1;entryX=0;entryY=0.75;entryDx=0;entryDy=0;strokeColor=#E07A5F;fillColor=#F2CC8F;fontColor=#393C56;strokeWidth=2;shadow=0;labelBackgroundColor=#F4F1DE;" parent="1" source="2" target="3" edge="1">
                    <mxGeometry relative="1" as="geometry"/>
                </mxCell>
                <mxCell id="UruzkeS9mUNZaN0ZP_7J-67" style="edgeStyle=orthogonalEdgeStyle;curved=0;rounded=0;sketch=0;orthogonalLoop=1;jettySize=auto;html=1;entryX=0;entryY=0.5;entryDx=0;entryDy=0;strokeColor=#E07A5F;fillColor=#F2CC8F;fontColor=#393C56;strokeWidth=2;shadow=0;labelBackgroundColor=#F4F1DE;" parent="1" source="2" target="UruzkeS9mUNZaN0ZP_7J-62" edge="1">
                    <mxGeometry relative="1" as="geometry"/>
                </mxCell>
                <mxCell id="UruzkeS9mUNZaN0ZP_7J-68" style="edgeStyle=orthogonalEdgeStyle;curved=0;rounded=0;sketch=0;orthogonalLoop=1;jettySize=auto;html=1;entryX=0;entryY=0.5;entryDx=0;entryDy=0;strokeColor=#E07A5F;fillColor=#F2CC8F;fontColor=#393C56;strokeWidth=2;shadow=0;labelBackgroundColor=#F4F1DE;" parent="1" source="2" target="UruzkeS9mUNZaN0ZP_7J-64" edge="1">
                    <mxGeometry relative="1" as="geometry"/>
                </mxCell>
                <mxCell id="UruzkeS9mUNZaN0ZP_7J-83" style="edgeStyle=orthogonalEdgeStyle;curved=0;rounded=0;sketch=0;orthogonalLoop=1;jettySize=auto;html=1;entryX=0;entryY=0.5;entryDx=0;entryDy=0;strokeColor=#E07A5F;fillColor=#F2CC8F;fontColor=#393C56;strokeWidth=2;shadow=0;labelBackgroundColor=#F4F1DE;" parent="1" source="2" target="UruzkeS9mUNZaN0ZP_7J-69" edge="1">
                    <mxGeometry relative="1" as="geometry"/>
                </mxCell>
                <mxCell id="UruzkeS9mUNZaN0ZP_7J-84" style="edgeStyle=orthogonalEdgeStyle;curved=0;rounded=0;sketch=0;orthogonalLoop=1;jettySize=auto;html=1;entryX=0;entryY=0.5;entryDx=0;entryDy=0;strokeColor=#E07A5F;fillColor=#F2CC8F;fontColor=#393C56;strokeWidth=2;shadow=0;labelBackgroundColor=#F4F1DE;" parent="1" source="2" target="UruzkeS9mUNZaN0ZP_7J-58" edge="1">
                    <mxGeometry relative="1" as="geometry"/>
                </mxCell>
                <mxCell id="UruzkeS9mUNZaN0ZP_7J-85" style="edgeStyle=orthogonalEdgeStyle;curved=0;rounded=0;sketch=0;orthogonalLoop=1;jettySize=auto;html=1;entryX=0;entryY=0.5;entryDx=0;entryDy=0;strokeColor=#E07A5F;fillColor=#F2CC8F;fontColor=#393C56;strokeWidth=2;shadow=0;labelBackgroundColor=#F4F1DE;" parent="1" source="2" target="UruzkeS9mUNZaN0ZP_7J-71" edge="1">
                    <mxGeometry relative="1" as="geometry"/>
                </mxCell>
                <mxCell id="UruzkeS9mUNZaN0ZP_7J-86" style="edgeStyle=orthogonalEdgeStyle;curved=0;rounded=0;sketch=0;orthogonalLoop=1;jettySize=auto;html=1;entryX=0;entryY=0.5;entryDx=0;entryDy=0;strokeColor=#E07A5F;fillColor=#F2CC8F;fontColor=#393C56;strokeWidth=2;shadow=0;labelBackgroundColor=#F4F1DE;" parent="1" source="2" target="UruzkeS9mUNZaN0ZP_7J-72" edge="1">
                    <mxGeometry relative="1" as="geometry"/>
                </mxCell>
                <mxCell id="UruzkeS9mUNZaN0ZP_7J-87" style="edgeStyle=orthogonalEdgeStyle;curved=0;rounded=0;sketch=0;orthogonalLoop=1;jettySize=auto;html=1;entryX=0;entryY=0.75;entryDx=0;entryDy=0;strokeColor=#E07A5F;fillColor=#F2CC8F;fontColor=#393C56;strokeWidth=2;shadow=0;labelBackgroundColor=#F4F1DE;" parent="1" source="2" target="UruzkeS9mUNZaN0ZP_7J-73" edge="1">
                    <mxGeometry relative="1" as="geometry"/>
                </mxCell>
                <mxCell id="UruzkeS9mUNZaN0ZP_7J-88" style="edgeStyle=orthogonalEdgeStyle;curved=0;rounded=0;sketch=0;orthogonalLoop=1;jettySize=auto;html=1;entryX=0;entryY=0.75;entryDx=0;entryDy=0;strokeColor=#E07A5F;fillColor=#F2CC8F;fontColor=#393C56;strokeWidth=2;shadow=0;labelBackgroundColor=#F4F1DE;" parent="1" source="2" target="UruzkeS9mUNZaN0ZP_7J-74" edge="1">
                    <mxGeometry relative="1" as="geometry"/>
                </mxCell>
                <mxCell id="UruzkeS9mUNZaN0ZP_7J-89" style="edgeStyle=orthogonalEdgeStyle;curved=0;rounded=0;sketch=0;orthogonalLoop=1;jettySize=auto;html=1;entryX=0;entryY=0.75;entryDx=0;entryDy=0;strokeColor=#E07A5F;fillColor=#F2CC8F;fontColor=#393C56;strokeWidth=2;shadow=0;labelBackgroundColor=#F4F1DE;" parent="1" source="2" target="UruzkeS9mUNZaN0ZP_7J-75" edge="1">
                    <mxGeometry relative="1" as="geometry"/>
                </mxCell>
                <mxCell id="UruzkeS9mUNZaN0ZP_7J-90" style="edgeStyle=orthogonalEdgeStyle;curved=0;rounded=0;sketch=0;orthogonalLoop=1;jettySize=auto;html=1;entryX=0;entryY=0.5;entryDx=0;entryDy=0;strokeColor=#E07A5F;fillColor=#F2CC8F;fontColor=#393C56;strokeWidth=2;shadow=0;labelBackgroundColor=#F4F1DE;" parent="1" source="2" target="UruzkeS9mUNZaN0ZP_7J-70" edge="1">
                    <mxGeometry relative="1" as="geometry"/>
                </mxCell>
                <mxCell id="UruzkeS9mUNZaN0ZP_7J-94" style="edgeStyle=orthogonalEdgeStyle;curved=0;rounded=0;sketch=0;orthogonalLoop=1;jettySize=auto;html=1;entryX=0;entryY=0.5;entryDx=0;entryDy=0;strokeColor=#E07A5F;fillColor=#F2CC8F;fontColor=#393C56;strokeWidth=2;shadow=0;labelBackgroundColor=#F4F1DE;" parent="1" source="2" target="UruzkeS9mUNZaN0ZP_7J-76" edge="1">
                    <mxGeometry relative="1" as="geometry"/>
                </mxCell>
                <mxCell id="UruzkeS9mUNZaN0ZP_7J-95" style="edgeStyle=orthogonalEdgeStyle;curved=0;rounded=0;sketch=0;orthogonalLoop=1;jettySize=auto;html=1;entryX=0;entryY=0.625;entryDx=0;entryDy=0;entryPerimeter=0;strokeColor=#E07A5F;fillColor=#F2CC8F;fontColor=#393C56;strokeWidth=2;shadow=0;labelBackgroundColor=#F4F1DE;" parent="1" source="2" target="UruzkeS9mUNZaN0ZP_7J-77" edge="1">
                    <mxGeometry relative="1" as="geometry"/>
                </mxCell>
                <mxCell id="UruzkeS9mUNZaN0ZP_7J-96" style="edgeStyle=orthogonalEdgeStyle;curved=0;rounded=0;sketch=0;orthogonalLoop=1;jettySize=auto;html=1;entryX=0;entryY=0.5;entryDx=0;entryDy=0;strokeColor=#E07A5F;fillColor=#F2CC8F;fontColor=#393C56;strokeWidth=2;shadow=0;labelBackgroundColor=#F4F1DE;" parent="1" source="2" target="UruzkeS9mUNZaN0ZP_7J-78" edge="1">
                    <mxGeometry relative="1" as="geometry"/>
                </mxCell>
                <mxCell id="UruzkeS9mUNZaN0ZP_7J-97" style="edgeStyle=orthogonalEdgeStyle;curved=0;rounded=0;sketch=0;orthogonalLoop=1;jettySize=auto;html=1;entryX=0;entryY=0.5;entryDx=0;entryDy=0;shadow=0;strokeColor=#E07A5F;strokeWidth=2;fillColor=#F2CC8F;fontColor=#393C56;labelBackgroundColor=#F4F1DE;" parent="1" source="2" target="UruzkeS9mUNZaN0ZP_7J-79" edge="1">
                    <mxGeometry relative="1" as="geometry"/>
                </mxCell>
                <mxCell id="2" value="数量词" style="fillColor=#F2CC8F;strokeColor=none;shadow=0;fontStyle=1;fontColor=#393C56;fontSize=24;rounded=1;strokeWidth=2;sketch=0;" parent="1" vertex="1">
                    <mxGeometry x="400" y="520" width="250" height="110" as="geometry"/>
                </mxCell>
                <mxCell id="UruzkeS9mUNZaN0ZP_7J-99" style="edgeStyle=orthogonalEdgeStyle;curved=0;rounded=0;sketch=0;orthogonalLoop=1;jettySize=auto;html=1;entryX=0;entryY=0.5;entryDx=0;entryDy=0;strokeColor=#E07A5F;fillColor=#F2CC8F;fontSize=16;fontColor=#393C56;" parent="1" source="3" target="UruzkeS9mUNZaN0ZP_7J-98" edge="1">
                    <mxGeometry relative="1" as="geometry"/>
                </mxCell>
                <mxCell id="3" value="some (一些)" style="fillColor=#F2CC8F;strokeColor=#E07A5F;shadow=0;fontStyle=1;fontColor=#393C56;fontSize=14;rounded=1;strokeWidth=2;sketch=0;" parent="1" vertex="1">
                    <mxGeometry x="730" y="40" width="220" height="60" as="geometry"/>
                </mxCell>
                <mxCell id="UruzkeS9mUNZaN0ZP_7J-58" value="a little (一些)" style="fillColor=#F2CC8F;strokeColor=#E07A5F;shadow=0;fontStyle=1;fontColor=#393C56;fontSize=14;rounded=1;strokeWidth=2;sketch=0;" parent="1" vertex="1">
                    <mxGeometry x="730" y="280" width="220" height="60" as="geometry"/>
                </mxCell>
                <mxCell id="UruzkeS9mUNZaN0ZP_7J-62" value="any (一些; 任何)" style="fillColor=#F2CC8F;strokeColor=#E07A5F;shadow=0;fontStyle=1;fontColor=#393C56;fontSize=14;rounded=1;strokeWidth=2;sketch=0;" parent="1" vertex="1">
                    <mxGeometry x="730" y="120" width="220" height="60" as="geometry"/>
                </mxCell>
                <mxCell id="UruzkeS9mUNZaN0ZP_7J-64" value="a few (一些)" style="fillColor=#F2CC8F;strokeColor=#E07A5F;shadow=0;fontStyle=1;fontColor=#393C56;fontSize=14;rounded=1;strokeWidth=2;sketch=0;" parent="1" vertex="1">
                    <mxGeometry x="730" y="200" width="220" height="60" as="geometry"/>
                </mxCell>
                <mxCell id="UruzkeS9mUNZaN0ZP_7J-69" value="few (很少)" style="fillColor=#F2CC8F;strokeColor=#E07A5F;shadow=0;fontStyle=1;fontColor=#393C56;fontSize=14;rounded=1;strokeWidth=2;sketch=0;" parent="1" vertex="1">
                    <mxGeometry x="730" y="360" width="220" height="60" as="geometry"/>
                </mxCell>
                <mxCell id="UruzkeS9mUNZaN0ZP_7J-70" value="little (很少)" style="fillColor=#F2CC8F;strokeColor=#E07A5F;shadow=0;fontStyle=1;fontColor=#393C56;fontSize=14;rounded=1;strokeWidth=2;sketch=0;" parent="1" vertex="1">
                    <mxGeometry x="730" y="440" width="220" height="60" as="geometry"/>
                </mxCell>
                <mxCell id="UruzkeS9mUNZaN0ZP_7J-71" value="many (很多)" style="fillColor=#F2CC8F;strokeColor=#E07A5F;shadow=0;fontStyle=1;fontColor=#393C56;fontSize=14;rounded=1;strokeWidth=2;sketch=0;" parent="1" vertex="1">
                    <mxGeometry x="730" y="520" width="220" height="60" as="geometry"/>
                </mxCell>
                <mxCell id="UruzkeS9mUNZaN0ZP_7J-72" value="much (很多)" style="fillColor=#F2CC8F;strokeColor=#E07A5F;shadow=0;fontStyle=1;fontColor=#393C56;fontSize=14;rounded=1;strokeWidth=2;sketch=0;" parent="1" vertex="1">
                    <mxGeometry x="730" y="600" width="220" height="60" as="geometry"/>
                </mxCell>
                <mxCell id="UruzkeS9mUNZaN0ZP_7J-73" value="each (每个)" style="fillColor=#F2CC8F;strokeColor=#E07A5F;shadow=0;fontStyle=1;fontColor=#393C56;fontSize=14;rounded=1;strokeWidth=2;sketch=0;" parent="1" vertex="1">
                    <mxGeometry x="730" y="680" width="220" height="60" as="geometry"/>
                </mxCell>
                <mxCell id="UruzkeS9mUNZaN0ZP_7J-74" value="every (每个都)" style="fillColor=#F2CC8F;strokeColor=#E07A5F;shadow=0;fontStyle=1;fontColor=#393C56;fontSize=14;rounded=1;strokeWidth=2;sketch=0;" parent="1" vertex="1">
                    <mxGeometry x="730" y="760" width="220" height="60" as="geometry"/>
                </mxCell>
                <mxCell id="UruzkeS9mUNZaN0ZP_7J-75" value="all (全部)" style="fillColor=#F2CC8F;strokeColor=#E07A5F;shadow=0;fontStyle=1;fontColor=#393C56;fontSize=14;rounded=1;strokeWidth=2;sketch=0;" parent="1" vertex="1">
                    <mxGeometry x="730" y="840" width="220" height="60" as="geometry"/>
                </mxCell>
                <mxCell id="UruzkeS9mUNZaN0ZP_7J-76" value="whole (整体的)" style="fillColor=#F2CC8F;strokeColor=#E07A5F;shadow=0;fontStyle=1;fontColor=#393C56;fontSize=14;rounded=1;strokeWidth=2;sketch=0;" parent="1" vertex="1">
                    <mxGeometry x="730" y="920" width="220" height="60" as="geometry"/>
                </mxCell>
                <mxCell id="UruzkeS9mUNZaN0ZP_7J-77" value="both (两者都)" style="fillColor=#F2CC8F;strokeColor=#E07A5F;shadow=0;fontStyle=1;fontColor=#393C56;fontSize=14;rounded=1;strokeWidth=2;sketch=0;" parent="1" vertex="1">
                    <mxGeometry x="730" y="1000" width="220" height="60" as="geometry"/>
                </mxCell>
                <mxCell id="UruzkeS9mUNZaN0ZP_7J-78" value="no (全无)" style="fillColor=#F2CC8F;strokeColor=#E07A5F;shadow=0;fontStyle=1;fontColor=#393C56;fontSize=14;rounded=1;strokeWidth=2;sketch=0;" parent="1" vertex="1">
                    <mxGeometry x="730" y="1080" width="220" height="60" as="geometry"/>
                </mxCell>
                <mxCell id="UruzkeS9mUNZaN0ZP_7J-79" value="none (某范围内) 全不" style="fillColor=#F2CC8F;strokeColor=#E07A5F;shadow=0;fontStyle=1;fontColor=#393C56;fontSize=14;rounded=1;strokeWidth=2;sketch=0;" parent="1" vertex="1">
                    <mxGeometry x="730" y="1160" width="220" height="60" as="geometry"/>
                </mxCell>
                <mxCell id="UruzkeS9mUNZaN0ZP_7J-98" value="+ 复数可数名词 / 不可数名词" style="rounded=1;whiteSpace=wrap;html=1;sketch=0;fillColor=#F2CC8F;fontColor=#393C56;strokeColor=none;fontSize=16;" parent="1" vertex="1">
                    <mxGeometry x="1200" y="250" width="240" height="50" as="geometry"/>
                </mxCell>
                <mxCell id="UruzkeS9mUNZaN0ZP_7J-101" value="I want some cookies. 我想要一些饼干。&lt;br&gt;&lt;br style=&quot;font-size: 14px&quot;&gt;Mom bought some cheese yesterday. 妈妈昨天买了一些 起司。&lt;br&gt;&lt;br&gt;&lt;span style=&quot;text-align: center&quot;&gt;Would you like&amp;nbsp;some milk&amp;nbsp;in your coffee?&amp;nbsp;&lt;/span&gt;&lt;span style=&quot;text-align: center&quot;&gt;你想要在你的咖啡裡加點牛奶嗎？（認為對方會說好）&lt;br&gt;&lt;/span&gt;&lt;br style=&quot;padding: 0px ; margin: 0px ; text-align: center&quot;&gt;&lt;span style=&quot;text-align: center&quot;&gt;Do you have&amp;nbsp;some ice cubes?&amp;nbsp;&lt;/span&gt;&lt;span style=&quot;text-align: center&quot;&gt;你有冰塊嗎？（帶有請求意味，並認為對方會有）&lt;/span&gt;&lt;br style=&quot;padding: 0px ; margin: 0px ; text-align: center&quot;&gt;&lt;span style=&quot;text-align: center&quot;&gt;&lt;br&gt;Do you have&amp;nbsp;some time? Wanna have a cup of coffee with me?&lt;/span&gt;&lt;br style=&quot;padding: 0px ; margin: 0px ; text-align: center&quot;&gt;&lt;span style=&quot;text-align: center&quot;&gt;你有空嗎？想跟我喝杯咖啡嗎？（帶有邀請意味，並認為對方會說好）&lt;/span&gt;" style="text;align=left;verticalAlign=middle;resizable=0;points=[];autosize=1;fontSize=14;html=1;spacing=2;spacingBottom=0;spacingTop=0;fontColor=#000000;" parent="1" vertex="1">
                    <mxGeometry x="1090" y="10" width="610" height="180" as="geometry"/>
                </mxCell>
            </root>
        </mxGraphModel>
    </diagram>
</mxfile>